<svg xmlns="http://www.w3.org/2000/svg" version="1.1" xmlns:xlink="http://www.w3.org/1999/xlink" xmlns:svgjs="http://svgjs.dev/svgjs" width="1000" height="623" viewBox="0 0 1000 623"><g transform="matrix(1,0,0,1,-0.6060606060605664,0.2522267206477409)"><svg viewBox="0 0 396 247" data-background-color="#ffffff" preserveAspectRatio="xMidYMid meet" height="623" width="1000" xmlns="http://www.w3.org/2000/svg" xmlns:xlink="http://www.w3.org/1999/xlink"><g id="tight-bounds" transform="matrix(1,0,0,1,0.2400000000000091,-0.09999999999999432)"><svg viewBox="0 0 395.52 247.2" height="247.2" width="395.52"><g><svg></svg></g><g><svg viewBox="0 0 395.52 247.2" height="247.2" width="395.52"><g transform="matrix(1,0,0,1,75.54432,90.9158201581742)"><svg viewBox="0 0 244.43135999999998 65.3683596836516" height="65.3683596836516" width="244.43135999999998"><g><svg viewBox="0 0 244.43135999999998 65.3683596836516" height="65.3683596836516" width="244.43135999999998"><g><svg viewBox="0 0 419.5206760389059 112.19255354975681" height="65.3683596836516" width="244.43135999999998"><g transform="matrix(1,0,0,1,175.08931603890588,5.200091735090602)"><svg viewBox="0 0 244.43135999999998 101.7923700795756" height="101.7923700795756" width="244.43135999999998"><g id="textblocktransform"><svg viewBox="0 0 244.43135999999998 101.7923700795756" height="101.7923700795756" width="244.43135999999998" id="textblock"><g><svg viewBox="0 0 244.43135999999998 101.7923700795756" height="101.7923700795756" width="244.43135999999998"><g transform="matrix(1,0,0,1,0,0)"><svg width="244.43135999999998" viewBox="5.05 -36.9 131.94 54.95" height="101.7923700795756" data-palette-color="#fce44d"><path d="M37.65-33.7L37.65-33.7Q37.8-32.85 37.88-32.52 37.95-32.2 37.95-31.65L37.95-31.65Q37.95-30 37.23-28.58 36.5-27.15 35.25-26.55L35.25-26.55Q34.25-27.9 32.8-28.88 31.35-29.85 29.63-30.48 27.9-31.1 26.05-31.4 24.2-31.7 22.45-31.7L22.45-31.7Q20.7-31.7 19.18-31.43 17.65-31.15 16.48-30.68 15.3-30.2 14.63-29.5 13.95-28.8 13.95-27.9L13.95-27.9Q14.1-26.8 15.3-25.68 16.5-24.55 18.25-23.48 20-22.4 22.13-21.35 24.25-20.3 26.3-19.35L26.3-19.35Q28.85-18.15 30.7-17.13 32.55-16.1 33.75-14.88 34.95-13.65 35.55-12.1 36.15-10.55 36.15-8.35L36.15-8.35Q36.15-5.8 35.3-3.58 34.45-1.35 32.83 0.3 31.2 1.95 28.9 2.88 26.6 3.8 23.75 3.8L23.75 3.8Q20.95 3.8 17.7 2.95 14.45 2.1 11.63 0.63 8.8-0.85 6.93-2.78 5.05-4.7 5.05-6.85L5.05-6.85Q5.05-7.85 5.63-9.4 6.2-10.95 7.7-12.65L7.7-12.65Q7.85-11.15 9.33-9.1 10.8-7.05 13.75-5.3L13.75-5.3Q16.5-3.7 19.43-2.98 22.35-2.25 24.9-2.25L24.9-2.25Q27.7-2.25 29.45-2.95 31.2-3.65 32.2-4.63 33.2-5.6 33.6-6.6 34-7.6 34.05-8.2L34.05-8.2Q34-9.2 33.13-10.13 32.25-11.05 30.78-11.93 29.3-12.8 27.35-13.7 25.4-14.6 23.3-15.5L23.3-15.5Q20.15-16.9 17.88-18.13 15.6-19.35 14.13-20.63 12.65-21.9 11.98-23.3 11.3-24.7 11.3-26.5L11.3-26.5Q11.3-29.3 13-31.8 14.7-34.3 17.9-35.6L17.9-35.6Q19.5-36.3 21.33-36.6 23.15-36.9 24.9-36.9L24.9-36.9Q28.2-36.9 31.35-36 34.5-35.1 37.65-33.7ZM57.2-20.2L57.2-20.2Q57.7-20.2 58.37-20.03 59.05-19.85 59.6-19.58 60.15-19.3 60.52-19 60.9-18.7 60.9-18.45L60.9-18.45Q59.9-16.35 59.05-14.23 58.2-12.1 57.6-10.15 57-8.2 56.67-6.5 56.35-4.8 56.35-3.55L56.35-3.55Q56.35-2.15 56.65-1.23 56.95-0.3 57.65 0.1L57.65 0.1Q57.05 0.5 56.1 0.75 55.15 1 54.4 1L54.4 1Q51.7 1 51.7-2.7L51.7-2.7Q51.7-5.55 53.6-10.5L53.6-10.5Q52.6-8.2 51.3-6.18 50-4.15 48.65-2.6 47.3-1.05 45.92-0.08 44.55 0.9 43.4 1.1L43.4 1.1Q41.55 1 40.4-0.68 39.25-2.35 39.25-4.95L39.25-4.95Q39.25-7.75 40.45-10.85 41.65-13.95 43.52-16.6 45.4-19.25 47.6-21.03 49.8-22.8 51.85-22.9L51.85-22.9Q52.35-22.75 52.97-22.3 53.6-21.85 54.17-21.25 54.75-20.65 55.15-20.03 55.55-19.4 55.6-18.95L55.6-18.95Q53.6-18.65 51.47-17 49.35-15.35 47.62-13.03 45.9-10.7 44.8-8.05 43.7-5.4 43.7-3.1L43.7-3.1Q43.7-2.15 44.4-1.9L44.4-1.9Q45.85-2.2 47.75-4.38 49.65-6.55 52.35-11.1L52.35-11.1Q52.85-12 53.47-13.1 54.1-14.2 54.75-15.4 55.4-16.6 56.02-17.82 56.65-19.05 57.2-20.2ZM82.05-7.75L82.05-7.75Q80.9-4.1 79.75-1.1 78.59 1.9 77.3 4.42 76 6.95 74.5 9.08 73 11.2 71.2 13.1L71.2 13.1Q68.9 15.5 66.45 16.78 64 18.05 61.55 18.05L61.55 18.05Q60.3 18.05 59.07 17.78 57.85 17.5 56.77 17.03 55.7 16.55 54.87 15.93 54.05 15.3 53.7 14.6L53.7 14.6Q53.7 14 54.4 13.55L54.4 13.55Q55 14.1 55.4 14.4 55.8 14.7 56.17 14.9 56.55 15.1 56.97 15.15 57.4 15.2 57.95 15.2L57.95 15.2Q60.8 15.2 63.52 13.53 66.25 11.85 68.67 8.78 71.09 5.7 73.09 1.33 75.09-3.05 76.5-8.45L76.5-8.45Q75.84-7.45 74.9-6 73.95-4.55 72.8-3.13 71.65-1.7 70.42-0.55 69.2 0.6 68.05 1L68.05 1Q67.25 0.95 66.37 0.68 65.5 0.4 64.72-0.1 63.95-0.6 63.35-1.3 62.75-2 62.55-2.9L62.55-2.9Q62.55-4.35 62.65-5.23 62.75-6.1 63-7.15L63-7.15Q63.45-9.05 64.32-11.45 65.2-13.85 66.37-16.18 67.55-18.5 68.97-20.53 70.4-22.55 71.95-23.7L71.95-23.7Q72.34-23.7 72.95-23.63 73.55-23.55 74.2-23.35 74.84-23.15 75.45-22.88 76.05-22.6 76.5-22.15L76.5-22.15Q75.95-21.65 74.09-18.8 72.25-15.95 70-10.6L70-10.6Q69.75-10.05 69.4-9 69.05-7.95 68.72-6.8 68.4-5.65 68.15-4.55 67.9-3.45 67.9-2.8L67.9-2.8Q67.9-2.4 68.02-2.2 68.15-2 68.25-1.9L68.25-1.9Q69.15-2.05 70.65-3.38 72.15-4.7 74.05-7.5L74.05-7.5Q75.25-9.3 76.25-11.08 77.25-12.85 78.22-14.65 79.2-16.45 80.25-18.35 81.3-20.25 82.5-22.25L82.5-22.25Q83.15-22.25 83.9-22.1 84.65-21.95 85.34-21.73 86.05-21.5 86.57-21.23 87.09-20.95 87.34-20.65L87.34-20.65Q85.8-17.35 84.45-14.2 83.09-11.05 82.05-7.75ZM104.94-20.2L104.94-20.2Q105.44-20.2 106.12-20.03 106.79-19.85 107.34-19.58 107.89-19.3 108.27-19 108.64-18.7 108.64-18.45L108.64-18.45Q107.64-16.35 106.79-14.23 105.94-12.1 105.34-10.15 104.74-8.2 104.42-6.5 104.09-4.8 104.09-3.55L104.09-3.55Q104.09-2.15 104.39-1.23 104.69-0.3 105.39 0.1L105.39 0.1Q104.79 0.5 103.84 0.75 102.89 1 102.14 1L102.14 1Q99.44 1 99.44-2.7L99.44-2.7Q99.44-5.55 101.34-10.5L101.34-10.5Q100.34-8.2 99.04-6.18 97.74-4.15 96.39-2.6 95.04-1.05 93.67-0.08 92.29 0.9 91.14 1.1L91.14 1.1Q89.29 1 88.14-0.68 86.99-2.35 86.99-4.95L86.99-4.95Q86.99-7.75 88.19-10.85 89.39-13.95 91.27-16.6 93.14-19.25 95.34-21.03 97.54-22.8 99.59-22.9L99.59-22.9Q100.09-22.75 100.72-22.3 101.34-21.85 101.92-21.25 102.49-20.65 102.89-20.03 103.29-19.4 103.34-18.95L103.34-18.95Q101.34-18.65 99.22-17 97.09-15.35 95.37-13.03 93.64-10.7 92.54-8.05 91.44-5.4 91.44-3.1L91.44-3.1Q91.44-2.15 92.14-1.9L92.14-1.9Q93.59-2.2 95.49-4.38 97.39-6.55 100.09-11.1L100.09-11.1Q100.59-12 101.22-13.1 101.84-14.2 102.49-15.4 103.14-16.6 103.77-17.82 104.39-19.05 104.94-20.2ZM119.29-24.25L119.29-24.25Q120.59-23.85 121.74-22.48 122.89-21.1 123.44-19.45L123.44-19.45Q122.89-18.1 121.74-16.2 120.59-14.3 119.44-12.33 118.29-10.35 117.37-8.58 116.44-6.8 116.29-5.65L116.29-5.65Q117.09-6.5 118.06-7.63 119.04-8.75 119.97-9.88 120.89-11 121.69-11.93 122.49-12.85 122.94-13.3L122.94-13.3Q123.89-14.3 125.19-15.63 126.49-16.95 127.92-18.13 129.34-19.3 130.79-20.13 132.24-20.95 133.44-20.95L133.44-20.95Q134.74-20.95 135.62-20.08 136.49-19.2 136.99-18.25L136.99-18.25Q136.99-18.15 136.62-17.98 136.24-17.8 135.54-17L135.54-17Q134.84-16.1 133.97-14.53 133.09-12.95 132.27-11.13 131.44-9.3 130.89-7.4 130.34-5.5 130.34-3.95L130.34-3.95Q130.34-2.7 130.67-2.35 130.99-2 131.59-2L131.59-2Q132.14-2 132.74-2.25 133.34-2.5 133.69-2.5L133.69-2.5Q133.89-2.4 134.02-2.08 134.14-1.75 134.14-1.5L134.14-1.5Q133.74-1.15 133.19-0.8 132.64-0.45 132.04-0.15 131.44 0.15 130.87 0.35 130.29 0.55 129.84 0.55L129.84 0.55Q128.39 0.55 127.47 0.13 126.54-0.3 126.02-1 125.49-1.7 125.29-2.68 125.09-3.65 125.09-4.75L125.09-4.75Q125.09-5.35 125.19-6.1 125.29-6.85 125.59-7.88 125.89-8.9 126.44-10.33 126.99-11.75 127.84-13.75L127.84-13.75Q127.74-13.75 126.49-13.05 125.24-12.35 123.79-10.9L123.79-10.9Q121.44-8.65 119.56-6.45 117.69-4.25 115.74-1.55L115.74-1.55Q114.64 0 113.81 1.07 112.99 2.15 112.39 2.5L112.39 2.5Q111.34 1.9 110.84 0.83 110.34-0.25 110.09-1.4L110.09-1.4Q110.09-2.35 110.37-3.8 110.64-5.25 111.12-7.03 111.59-8.8 112.29-10.75 112.99-12.7 113.84-14.65L113.84-14.65Q115.74-19.05 117.31-21.55 118.89-24.05 119.29-24.25Z" opacity="1" transform="matrix(1,0,0,1,0,0)" fill="#fce44d" class="wordmark-text-0" data-fill-palette-color="primary" id="text-0"></path></svg></g></svg></g></svg></g></svg></g><g><svg viewBox="0 0 151.05858048 112.19255354975681" height="112.19255354975681" width="151.05858048"><g><svg xmlns="http://www.w3.org/2000/svg" xmlns:xlink="http://www.w3.org/1999/xlink" version="1.1" x="0" y="0" viewBox="7.5 18.435 85.001 63.131" enable-background="new 0 0 100 100" xml:space="preserve" height="112.19255354975681" width="151.05858048" class="icon-icon-0" data-fill-palette-color="accent" id="icon-0"><g fill="#fce44d" data-fill-palette-color="accent"><path d="M89.405 18.435H10.595c-1.706 0-3.095 1.389-3.095 3.095v56.941c0 1.706 1.389 3.095 3.095 3.095h78.811c1.707 0 3.095-1.389 3.095-3.095V77.14 32.027 21.529C92.5 19.823 91.112 18.435 89.405 18.435zM10.595 19.673h78.811c1.023 0 1.857 0.833 1.857 1.856v9.075c-0.068-0.01-0.136-0.021-0.207-0.021H8.951c-0.073 0-0.143 0.011-0.213 0.021v-9.076C8.738 20.506 9.571 19.673 10.595 19.673zM91.263 77.14c0 0.114-0.093 0.206-0.207 0.206H8.951c-0.113 0-0.206-0.092-0.206-0.206V32.027c0-0.113 0.093-0.206 0.206-0.206h82.104c0.114 0 0.207 0.093 0.207 0.206V77.14zM89.405 80.327H10.595c-0.992 0-1.798-0.784-1.848-1.764 0.067 0.01 0.135 0.021 0.204 0.021h82.104c0.068 0 0.133-0.011 0.197-0.02C91.202 79.544 90.396 80.327 89.405 80.327z" fill="#fce44d" data-fill-palette-color="accent"></path><path d="M28.178 27.787c1.45 0 2.63-1.18 2.63-2.63 0-1.451-1.18-2.631-2.63-2.631s-2.631 1.18-2.631 2.631C25.547 26.607 26.728 27.787 28.178 27.787zM28.178 23.765c0.768 0 1.393 0.624 1.393 1.393 0 0.768-0.625 1.393-1.393 1.393-0.769 0-1.393-0.625-1.393-1.393C26.785 24.389 27.409 23.765 28.178 23.765z" fill="#fce44d" data-fill-palette-color="accent"></path><path d="M21.458 27.787c1.451 0 2.631-1.18 2.631-2.63 0-1.451-1.18-2.631-2.631-2.631-1.45 0-2.63 1.18-2.63 2.631C18.828 26.607 20.008 27.787 21.458 27.787zM21.458 23.765c0.769 0 1.393 0.624 1.393 1.393 0 0.768-0.624 1.393-1.393 1.393-0.768 0-1.393-0.625-1.393-1.393C20.065 24.389 20.69 23.765 21.458 23.765z" fill="#fce44d" data-fill-palette-color="accent"></path><path d="M14.738 27.787c1.451 0 2.631-1.18 2.631-2.63 0-1.451-1.18-2.631-2.631-2.631-1.45 0-2.63 1.18-2.63 2.631C12.108 26.607 13.288 27.787 14.738 27.787zM14.738 23.765c0.769 0 1.393 0.624 1.393 1.393 0 0.768-0.624 1.393-1.393 1.393-0.768 0-1.393-0.625-1.393-1.393C13.346 24.389 13.971 23.765 14.738 23.765z" fill="#fce44d" data-fill-palette-color="accent"></path></g><path d="M26.598 65.915c-0.624 0-1.395-0.429-2.289-1.276-1.605-1.519-2.16-2.371-1.2-3.405l8.79-8.811-8.774-8.782c-0.676-0.676-0.57-1.195-0.401-1.57 0.242-0.544 0.814-1.117 1.479-1.781 0.829-0.829 1.542-1.542 2.241-1.542 0.342 0 0.679 0.172 1.033 0.526l11.769 11.755c0.311 0.254 0.521 0.659 0.564 1.134 0.048 0.537-0.134 1.152-0.452 1.533L27.53 65.514C27.243 65.787 26.941 65.915 26.598 65.915zM23.846 42.57c-0.009 0 0.027 0.068 0.154 0.194l9.211 9.221c0.241 0.242 0.241 0.633 0 0.875L24 62.093c-0.093 0.1-0.125 0.147-0.133 0.166 0.012 0.047 0.125 0.377 1.292 1.48 0.979 0.927 1.42 0.938 1.438 0.938v0.619l0.01-0.62c-0.001 0.001-0.001 0.001-0.001 0.001-0.003 0 0.02-0.012 0.061-0.05l11.777-11.767c0.061-0.077 0.151-0.357 0.131-0.589-0.013-0.145-0.063-0.246-0.162-0.328L26.601 40.148c-0.144-0.143-0.215-0.171-0.215-0.171-0.182 0.06-0.886 0.764-1.307 1.184-0.531 0.532-1.077 1.078-1.227 1.413C23.85 42.571 23.848 42.57 23.846 42.57z" fill="#fce44d" data-fill-palette-color="accent"></path><path d="M55.834 71.436H40.498c-1.594 0-1.92-1.234-1.92-3.088s0.326-3.088 1.92-3.088h15.336c1.503 0 1.787 1.085 1.787 3.088C57.621 70.396 57.346 71.436 55.834 71.436zM40.498 66.497c-0.366 0-0.683 0-0.683 1.851s0.316 1.851 0.683 1.851h15.336c0.354 0 0.55 0 0.55-1.851s-0.219-1.851-0.55-1.851H40.498z" fill="#fce44d" data-fill-palette-color="accent"></path></svg></g></svg></g></svg></g></svg></g></svg></g><g><path d="M0 123.6c0-68.262 55.338-123.6 123.6-123.6 54.381 0 100.559 35.119 117.091 83.915l-2.828 0c-16.423-47.293-61.379-81.241-114.263-81.241-66.785 0-120.926 54.14-120.926 120.926 0 66.785 54.14 120.926 120.926 120.926 52.885 0 97.84-33.948 114.263-81.241l2.828 0c-16.532 48.796-62.711 83.915-117.091 83.915-68.262 0-123.6-55.338-123.6-123.6z" fill="#fce44d" stroke="transparent" data-fill-palette-color="tertiary"></path></g></svg></g><defs></defs></svg><rect width="395.52" height="247.2" fill="none" stroke="none" visibility="hidden"></rect></g></svg></g></svg>