<svg xmlns="http://www.w3.org/2000/svg" version="1.1" xmlns:xlink="http://www.w3.org/1999/xlink" xmlns:svgjs="http://svgjs.dev/svgjs" width="2000" height="1247" viewBox="0 0 2000 1247"><g transform="matrix(1,0,0,1,-1.2121212121212466,0.504858299595071)"><svg viewBox="0 0 396 247" data-background-color="#ffffff" preserveAspectRatio="xMidYMid meet" height="1247" width="2000" xmlns="http://www.w3.org/2000/svg" xmlns:xlink="http://www.w3.org/1999/xlink"><g id="tight-bounds" transform="matrix(1,0,0,1,0.2400000000000091,-0.09999999999999432)"><svg viewBox="0 0 395.52 247.2" height="247.2" width="395.52"><g><svg></svg></g><g><svg viewBox="0 0 395.52 247.2" height="247.2" width="395.52"><mask id="df5d4cfe-36cf-4d48-ab68-d8bddfff3774"><rect width="395.52" height="247.2" fill="white"></rect><g transform="matrix(1,0,0,1,16.068000000000012,37.08)" id="clone"><svg viewBox="0 0 363.38399999999996 173.04" height="173.04" width="363.38399999999996"><g><svg viewBox="0 0 363.38399999999996 173.04" height="173.04" width="363.38399999999996"><g><svg viewBox="0 0 363.38399999999996 173.04" height="173.04" width="363.38399999999996"><g><svg viewBox="0 0 363.38399999999996 173.04" height="173.04" width="363.38399999999996"><g id="SvgjsG1162"><svg viewBox="0 0 363.38399999999996 173.04" height="173.04" width="363.38399999999996" id="SvgjsSvg1161"><g><svg viewBox="0 0 363.38399999999996 173.04" height="173.04" width="363.38399999999996"><g transform="matrix(1,0,0,1,0,0)"><svg width="363.38399999999996" viewBox="-1.9500000476837158 -38.349998474121094 139.58999633789062 67" height="173.04" data-palette-color="#ba3b0a"><path d="M10.95 0.6Q8.6 0.6 6.43 0.1 4.25-0.4 2.83-1.15 1.4-1.9 1.05-2.6L1.05-2.6Q1.3-3.85 1.58-6.18 1.85-8.5 1.9-9.6L1.9-9.6Q2.45-10.05 3.3-10.15L3.3-10.15Q3.5-6.15 5.35-4.03 7.2-1.9 10.7-1.9L10.7-1.9Q14.35-1.9 16.53-4.05 18.7-6.2 18.7-9.55L18.7-9.55Q18.7-11.2 18.13-12.38 17.55-13.55 16.57-14.43 15.6-15.3 13.8-16.5L13.8-16.5Q11.3-18.25 9.78-19.58 8.25-20.9 7.35-22.58 6.45-24.25 6.45-26.4L6.45-26.4Q6.45-29.15 7.98-31.18 9.5-33.2 12.13-34.27 14.75-35.35 18-35.35L18-35.35Q21.15-35.35 23.75-34.43 26.35-33.5 27.05-32.45L27.05-32.45Q25.05-27.95 24.7-26.4L24.7-26.4Q23.95-26.1 22.9-26.1L22.9-26.1Q23.55-27.85 23.55-29.15L23.55-29.15Q23.55-31.15 22.03-32.2 20.5-33.25 18.05-33.25L18.05-33.25Q14.55-33.25 12.88-31.35 11.2-29.45 11.2-26.95L11.2-26.95Q11.2-24.55 12.7-22.9 14.2-21.25 16.6-19.8L16.6-19.8Q19.2-18.2 20.7-17.03 22.2-15.85 23.23-14.1 24.25-12.35 24.25-9.9L24.25-9.9Q24.25-6.65 22.45-4.28 20.65-1.9 17.63-0.65 14.6 0.6 10.95 0.6L10.95 0.6ZM59.05-12.05Q59.95-12.05 59.95-10.55L59.95-10.55Q59.95-8.15 58.02-5.53 56.1-2.9 53.25-1.15 50.4 0.6 48 0.6L48 0.6Q46.1 0.6 44.67-0.5 43.25-1.6 42.65-3.35L42.65-3.35Q41.3-1.65 39.4-0.63 37.5 0.4 36 0.4L36 0.4Q34.7 0.4 33.4-0.38 32.1-1.15 31.2-2.35 30.3-3.55 30.25-4.75L30.25-4.75Q31.4-9.85 32.3-14.65L32.3-14.65Q32.5-15.65 34-17.18 35.5-18.7 37.6-19.8 39.7-20.9 41.6-20.9L41.6-20.9Q43.35-20.9 45.15-19.85L45.15-19.85Q45.5-20.7 45.7-20.93 45.9-21.15 46.3-21.2L46.3-21.2 50.65-21.45 50.8-21.35Q50.2-20.85 49.9-20.25 49.6-19.65 49.35-18.85L49.35-18.85Q48.45-15.8 47.5-11.48 46.55-7.15 46.55-5.5L46.55-5.5Q46.55-4.1 47.22-2.95 47.9-1.8 49.35-1.8L49.35-1.8Q50.85-1.8 52.82-3.1 54.8-4.4 56.52-6.75 58.25-9.1 59.05-12.05L59.05-12.05ZM37.6-2.6Q38.3-2.6 39.3-3.3 40.3-4 41.17-5.2 42.05-6.4 42.4-7.85L42.4-7.85 43.2-11.6Q44.1-16.2 44.45-17.65L44.45-17.65Q43.15-18.25 41.7-18.25L41.7-18.25Q39.35-18.25 38.17-16.78 37-15.3 36.6-13.45L36.6-13.45 35.05-5.9Q35.15-4.65 35.95-3.63 36.75-2.6 37.6-2.6L37.6-2.6ZM71.25-20.9Q72.45-20.9 74.07-20.63 75.7-20.35 75.84-19.75L75.84-19.75Q75.05-15.85 73.9-10.7 72.75-5.55 71.84-2.25L71.84-2.25Q68.8 9.25 62.87 17.45 56.95 25.65 46.45 25.65L46.45 25.65Q41.75 25.65 39.45 23.93 37.15 22.2 37.15 19.65L37.15 19.65Q37.15 17.95 38.2 16.6L38.2 16.6Q39.7 18.5 42.45 19.75 45.2 21 48.85 21L48.85 21Q53.15 21 56.5 18.85 59.85 16.7 62.65 11.55 65.45 6.4 67.84-2.5L67.84-2.5Q66.34-1.45 64.8-0.73 63.25 0 62.25 0L62.25 0Q61.25 0 59.95-0.63 58.65-1.25 57.72-2.25 56.8-3.25 56.8-4.35L56.8-4.35Q57-5.35 57.6-8.9L57.6-8.9Q58.5-14.95 59.5-19.4L59.5-19.4Q59.8-20.8 61.6-20.8L61.6-20.8Q62.2-20.8 63.15-20.73 64.09-20.65 64.4-20.55L64.4-20.55Q63.6-16.9 62.25-9.45L62.25-9.45Q61.8-6.65 61.5-5.3L61.5-5.3Q61.45-4.2 62.1-3.48 62.75-2.75 63.6-2.75L63.6-2.75Q64.65-2.75 66.22-3.78 67.8-4.8 68.59-5.85L68.59-5.85 69.55-11.25Q70.9-18.6 71.25-20.9L71.25-20.9ZM108.74-12.05Q109.64-12.05 109.64-10.55L109.64-10.55Q109.64-8.15 107.72-5.53 105.79-2.9 102.94-1.15 100.09 0.6 97.69 0.6L97.69 0.6Q95.79 0.6 94.37-0.5 92.94-1.6 92.34-3.35L92.34-3.35Q90.99-1.65 89.09-0.63 87.19 0.4 85.69 0.4L85.69 0.4Q84.39 0.4 83.09-0.38 81.79-1.15 80.89-2.35 79.99-3.55 79.94-4.75L79.94-4.75Q81.09-9.85 81.99-14.65L81.99-14.65Q82.19-15.65 83.69-17.18 85.19-18.7 87.29-19.8 89.39-20.9 91.29-20.9L91.29-20.9Q93.04-20.9 94.84-19.85L94.84-19.85Q95.19-20.7 95.39-20.93 95.59-21.15 95.99-21.2L95.99-21.2 100.34-21.45 100.49-21.35Q99.89-20.85 99.59-20.25 99.29-19.65 99.04-18.85L99.04-18.85Q98.14-15.8 97.19-11.48 96.24-7.15 96.24-5.5L96.24-5.5Q96.24-4.1 96.92-2.95 97.59-1.8 99.04-1.8L99.04-1.8Q100.54-1.8 102.52-3.1 104.49-4.4 106.22-6.75 107.94-9.1 108.74-12.05L108.74-12.05ZM87.29-2.6Q87.99-2.6 88.99-3.3 89.99-4 90.87-5.2 91.74-6.4 92.09-7.85L92.09-7.85 92.89-11.6Q93.79-16.2 94.14-17.65L94.14-17.65Q92.84-18.25 91.39-18.25L91.39-18.25Q89.04-18.25 87.87-16.78 86.69-15.3 86.29-13.45L86.29-13.45 84.74-5.9Q84.84-4.65 85.64-3.63 86.44-2.6 87.29-2.6L87.29-2.6ZM133.69-11.2Q134.14-11.2 134.39-10.88 134.64-10.55 134.64-10.05L134.64-10.05Q134.64-8.7 132.97-6.08 131.29-3.45 128.49-1.43 125.69 0.6 122.29 0.6L122.29 0.6Q119.69 0.6 118.27-0.68 116.84-1.95 116.84-4.05L116.84-4.05Q116.84-5.3 117.32-7.15 117.79-9 118.64-11.8L118.64-11.8Q119.44-14.4 119.94-16.45L119.94-16.45Q119.89-16.75 119.54-16.75L119.54-16.75Q118.84-16.75 116.84-14.95 114.84-13.15 112.89-10.9 110.94-8.65 110.49-7.55L110.49-7.55Q109.59-3.5 109.39-2.18 109.19-0.85 109.14-0.7L109.14-0.7Q109.09-0.55 109.04-0.33 108.99-0.1 108.92-0.05 108.84 0 108.69 0L108.69 0Q107.94 0 106.34-0.1 104.74-0.2 104.74-0.4L104.74-0.4Q105.04-2.2 106.29-7.9L106.29-7.9Q106.54-9.3 106.54-9.25L106.54-9.25 108.79-20.25Q108.84-20.6 109.02-20.68 109.19-20.75 109.74-20.75L109.74-20.75Q112.09-20.75 113.14-20L113.14-20Q113.09-19.8 112.59-17.53 112.09-15.25 111.14-11.75L111.14-11.75Q113.94-15.15 116.89-17.9 119.84-20.65 120.89-20.65L120.89-20.65Q121.44-20.65 123.12-20.1 124.79-19.55 124.89-19.2L124.89-19.2 123.99-15.8Q122.69-11.15 122.04-8.4 121.39-5.65 121.39-4.2L121.39-4.2Q121.39-1.9 123.54-1.9L123.54-1.9Q125.29-1.9 127.37-3.28 129.44-4.65 131.17-6.83 132.89-9 133.69-11.2L133.69-11.2Z" opacity="1" transform="matrix(1,0,0,1,0,0)" fill="black" class="wordmark-text-0" id="SvgjsPath1160" stroke-width="5" stroke="black" stroke-linejoin="round"></path></svg></g></svg></g></svg></g></svg></g></svg></g></svg></g></svg></g></mask><g mask="url(#df5d4cfe-36cf-4d48-ab68-d8bddfff3774)"><g><path xmlns="http://www.w3.org/2000/svg" d="M176.444 247.2c-10.773 0-21.133-1.146-31.081-3.438-9.993-2.292-18.245-5.157-24.754-8.595-6.555-3.438-10.635-6.762-12.24-9.971v0c1.146-5.73 2.361-13.936 3.645-24.617 1.238-10.635 1.971-18.474 2.2-23.516v0c2.521-2.063 5.73-3.324 9.627-3.782v0c0.917 18.337 5.616 32.364 14.096 42.082 8.481 9.764 20.743 14.646 36.788 14.646v0c16.732 0 30.095-4.928 40.088-14.783 9.948-9.856 14.921-22.462 14.921-37.82v0c0-7.564-1.306-14.05-3.919-19.459-2.659-5.363-6.234-10.062-10.727-14.097-4.447-3.988-10.796-8.733-19.047-14.233v0c-11.46-8.022-20.674-15.082-27.642-21.179-7.014-6.051-12.583-12.927-16.71-20.629-4.126-7.656-6.189-16.411-6.188-26.267v0c0-12.606 3.507-23.563 10.52-32.868 6.968-9.26 16.48-16.342 28.537-21.248 12.01-4.951 25.465-7.426 40.363-7.426v0c14.44 0 27.619 2.109 39.538 6.326 11.919 4.263 19.483 8.802 22.692 13.615v0c-9.168 20.629-14.555 34.496-16.159 41.601v0c-3.438 1.375-7.564 2.063-12.377 2.063v0c2.98-8.022 4.47-15.013 4.469-20.972v0c0-9.168-3.484-16.159-10.452-20.973-7.014-4.813-16.136-7.22-27.367-7.22v0c-16.045 0-27.895 4.355-35.55 13.065-7.701 8.71-11.552 18.795-11.552 30.255v0c0 11.002 3.438 20.285 10.314 27.849 6.876 7.564 15.815 14.669 26.817 21.316v0c11.919 7.335 21.316 13.684 28.193 19.047 6.876 5.409 12.675 12.125 17.397 20.148 4.676 8.022 7.014 17.649 7.013 28.88v0c0 14.898-4.126 27.78-12.377 38.644-8.251 10.91-19.299 19.23-33.143 24.961-13.89 5.73-29.201 8.595-45.933 8.595z" fill="#ba3b0a" fill-rule="nonzero" stroke="none" stroke-width="1" stroke-linecap="butt" stroke-linejoin="miter" stroke-miterlimit="10" stroke-dasharray="" stroke-dashoffset="0" font-family="none" font-weight="none" font-size="none" text-anchor="none" style="mix-blend-mode: normal" data-fill-palette-color="tertiary"></path></g></g><g transform="matrix(1,0,0,1,16.068000000000012,37.08)"><svg viewBox="0 0 363.38399999999996 173.04" height="173.04" width="363.38399999999996"><g><svg viewBox="0 0 363.38399999999996 173.04" height="173.04" width="363.38399999999996"><g><svg viewBox="0 0 363.38399999999996 173.04" height="173.04" width="363.38399999999996"><g><svg viewBox="0 0 363.38399999999996 173.04" height="173.04" width="363.38399999999996"><g id="textblocktransform"><svg viewBox="0 0 363.38399999999996 173.04" height="173.04" width="363.38399999999996" id="textblock"><g><svg viewBox="0 0 363.38399999999996 173.04" height="173.04" width="363.38399999999996"><g transform="matrix(1,0,0,1,0,0)"><svg width="363.38399999999996" viewBox="-1.9500000476837158 -38.349998474121094 139.58999633789062 67" height="173.04" data-palette-color="#ba3b0a"><path d="M10.95 0.6Q8.6 0.6 6.43 0.1 4.25-0.4 2.83-1.15 1.4-1.9 1.05-2.6L1.05-2.6Q1.3-3.85 1.58-6.18 1.85-8.5 1.9-9.6L1.9-9.6Q2.45-10.05 3.3-10.15L3.3-10.15Q3.5-6.15 5.35-4.03 7.2-1.9 10.7-1.9L10.7-1.9Q14.35-1.9 16.53-4.05 18.7-6.2 18.7-9.55L18.7-9.55Q18.7-11.2 18.13-12.38 17.55-13.55 16.57-14.43 15.6-15.3 13.8-16.5L13.8-16.5Q11.3-18.25 9.78-19.58 8.25-20.9 7.35-22.58 6.45-24.25 6.45-26.4L6.45-26.4Q6.45-29.15 7.98-31.18 9.5-33.2 12.13-34.27 14.75-35.35 18-35.35L18-35.35Q21.15-35.35 23.75-34.43 26.35-33.5 27.05-32.45L27.05-32.45Q25.05-27.95 24.7-26.4L24.7-26.4Q23.95-26.1 22.9-26.1L22.9-26.1Q23.55-27.85 23.55-29.15L23.55-29.15Q23.55-31.15 22.03-32.2 20.5-33.25 18.05-33.25L18.05-33.25Q14.55-33.25 12.88-31.35 11.2-29.45 11.2-26.95L11.2-26.95Q11.2-24.55 12.7-22.9 14.2-21.25 16.6-19.8L16.6-19.8Q19.2-18.2 20.7-17.03 22.2-15.85 23.23-14.1 24.25-12.35 24.25-9.9L24.25-9.9Q24.25-6.65 22.45-4.28 20.65-1.9 17.63-0.65 14.6 0.6 10.95 0.6L10.95 0.6ZM59.05-12.05Q59.95-12.05 59.95-10.55L59.95-10.55Q59.95-8.15 58.02-5.53 56.1-2.9 53.25-1.15 50.4 0.6 48 0.6L48 0.6Q46.1 0.6 44.67-0.5 43.25-1.6 42.65-3.35L42.65-3.35Q41.3-1.65 39.4-0.63 37.5 0.4 36 0.4L36 0.4Q34.7 0.4 33.4-0.38 32.1-1.15 31.2-2.35 30.3-3.55 30.25-4.75L30.25-4.75Q31.4-9.85 32.3-14.65L32.3-14.65Q32.5-15.65 34-17.18 35.5-18.7 37.6-19.8 39.7-20.9 41.6-20.9L41.6-20.9Q43.35-20.9 45.15-19.85L45.15-19.85Q45.5-20.7 45.7-20.93 45.9-21.15 46.3-21.2L46.3-21.2 50.65-21.45 50.8-21.35Q50.2-20.85 49.9-20.25 49.6-19.65 49.35-18.85L49.35-18.85Q48.45-15.8 47.5-11.48 46.55-7.15 46.55-5.5L46.55-5.5Q46.55-4.1 47.22-2.95 47.9-1.8 49.35-1.8L49.35-1.8Q50.85-1.8 52.82-3.1 54.8-4.4 56.52-6.75 58.25-9.1 59.05-12.05L59.05-12.05ZM37.6-2.6Q38.3-2.6 39.3-3.3 40.3-4 41.17-5.2 42.05-6.4 42.4-7.85L42.4-7.85 43.2-11.6Q44.1-16.2 44.45-17.65L44.45-17.65Q43.15-18.25 41.7-18.25L41.7-18.25Q39.35-18.25 38.17-16.78 37-15.3 36.6-13.45L36.6-13.45 35.05-5.9Q35.15-4.65 35.95-3.63 36.75-2.6 37.6-2.6L37.6-2.6ZM71.25-20.9Q72.45-20.9 74.07-20.63 75.7-20.35 75.84-19.75L75.84-19.75Q75.05-15.85 73.9-10.7 72.75-5.55 71.84-2.25L71.84-2.25Q68.8 9.25 62.87 17.45 56.95 25.65 46.45 25.65L46.45 25.65Q41.75 25.65 39.45 23.93 37.15 22.2 37.15 19.65L37.15 19.65Q37.15 17.95 38.2 16.6L38.2 16.6Q39.7 18.5 42.45 19.75 45.2 21 48.85 21L48.85 21Q53.15 21 56.5 18.85 59.85 16.7 62.65 11.55 65.45 6.4 67.84-2.5L67.84-2.5Q66.34-1.45 64.8-0.73 63.25 0 62.25 0L62.25 0Q61.25 0 59.95-0.63 58.65-1.25 57.72-2.25 56.8-3.25 56.8-4.35L56.8-4.35Q57-5.35 57.6-8.9L57.6-8.9Q58.5-14.95 59.5-19.4L59.5-19.4Q59.8-20.8 61.6-20.8L61.6-20.8Q62.2-20.8 63.15-20.73 64.09-20.65 64.4-20.55L64.4-20.55Q63.6-16.9 62.25-9.45L62.25-9.45Q61.8-6.65 61.5-5.3L61.5-5.3Q61.45-4.2 62.1-3.48 62.75-2.75 63.6-2.75L63.6-2.75Q64.65-2.75 66.22-3.78 67.8-4.8 68.59-5.85L68.59-5.85 69.55-11.25Q70.9-18.6 71.25-20.9L71.25-20.9ZM108.74-12.05Q109.64-12.05 109.64-10.55L109.64-10.55Q109.64-8.15 107.72-5.53 105.79-2.9 102.94-1.15 100.09 0.6 97.69 0.6L97.69 0.6Q95.79 0.6 94.37-0.5 92.94-1.6 92.34-3.35L92.34-3.35Q90.99-1.65 89.09-0.63 87.19 0.4 85.69 0.4L85.69 0.4Q84.39 0.4 83.09-0.38 81.79-1.15 80.89-2.35 79.99-3.55 79.94-4.75L79.94-4.75Q81.09-9.85 81.99-14.65L81.99-14.65Q82.19-15.65 83.69-17.18 85.19-18.7 87.29-19.8 89.39-20.9 91.29-20.9L91.29-20.9Q93.04-20.9 94.84-19.85L94.84-19.85Q95.19-20.7 95.39-20.93 95.59-21.15 95.99-21.2L95.99-21.2 100.34-21.45 100.49-21.35Q99.89-20.85 99.59-20.25 99.29-19.65 99.04-18.85L99.04-18.85Q98.14-15.8 97.19-11.48 96.24-7.15 96.24-5.5L96.24-5.5Q96.24-4.1 96.92-2.95 97.59-1.8 99.04-1.8L99.04-1.8Q100.54-1.8 102.52-3.1 104.49-4.4 106.22-6.75 107.94-9.1 108.74-12.05L108.74-12.05ZM87.29-2.6Q87.99-2.6 88.99-3.3 89.99-4 90.87-5.2 91.74-6.4 92.09-7.85L92.09-7.85 92.89-11.6Q93.79-16.2 94.14-17.65L94.14-17.65Q92.84-18.25 91.39-18.25L91.39-18.25Q89.04-18.25 87.87-16.78 86.69-15.3 86.29-13.45L86.29-13.45 84.74-5.9Q84.84-4.65 85.64-3.63 86.44-2.6 87.29-2.6L87.29-2.6ZM133.69-11.2Q134.14-11.2 134.39-10.88 134.64-10.55 134.64-10.05L134.64-10.05Q134.64-8.7 132.97-6.08 131.29-3.45 128.49-1.43 125.69 0.6 122.29 0.6L122.29 0.6Q119.69 0.6 118.27-0.68 116.84-1.95 116.84-4.05L116.84-4.05Q116.84-5.3 117.32-7.15 117.79-9 118.64-11.8L118.64-11.8Q119.44-14.4 119.94-16.45L119.94-16.45Q119.89-16.75 119.54-16.75L119.54-16.75Q118.84-16.75 116.84-14.95 114.84-13.15 112.89-10.9 110.94-8.65 110.49-7.55L110.49-7.55Q109.59-3.5 109.39-2.18 109.19-0.85 109.14-0.7L109.14-0.7Q109.09-0.55 109.04-0.33 108.99-0.1 108.92-0.05 108.84 0 108.69 0L108.69 0Q107.94 0 106.34-0.1 104.74-0.2 104.74-0.4L104.74-0.4Q105.04-2.2 106.29-7.9L106.29-7.9Q106.54-9.3 106.54-9.25L106.54-9.25 108.79-20.25Q108.84-20.6 109.02-20.68 109.19-20.75 109.74-20.75L109.74-20.75Q112.09-20.75 113.14-20L113.14-20Q113.09-19.8 112.59-17.53 112.09-15.25 111.14-11.75L111.14-11.75Q113.94-15.15 116.89-17.9 119.84-20.65 120.89-20.65L120.89-20.65Q121.44-20.65 123.12-20.1 124.79-19.55 124.89-19.2L124.89-19.2 123.99-15.8Q122.69-11.15 122.04-8.4 121.39-5.65 121.39-4.2L121.39-4.2Q121.39-1.9 123.54-1.9L123.54-1.9Q125.29-1.9 127.37-3.28 129.44-4.65 131.17-6.83 132.89-9 133.69-11.2L133.69-11.2Z" opacity="1" transform="matrix(1,0,0,1,0,0)" fill="#ba3b0a" class="wordmark-text-0" data-fill-palette-color="primary" id="text-0"></path></svg></g></svg></g></svg></g></svg></g></svg></g></svg></g></svg></g></svg></g><defs></defs></svg><rect width="395.52" height="247.2" fill="none" stroke="none" visibility="hidden"></rect></g></svg></g></svg>